<?xml version="1.0" standalone="no"?>
<!DOCTYPE svg PUBLIC "-//W3C//DTD SVG 20010904//EN"
 "http://www.w3.org/TR/2001/REC-SVG-20010904/DTD/svg10.dtd">
<svg version="1.0" xmlns="http://www.w3.org/2000/svg"
 width="172.000000pt" height="172.000000pt" viewBox="0 0 172.000000 172.000000"
 preserveAspectRatio="xMidYMid meet">
<metadata>
Created by potrace 1.14, written by Peter Selinger 2001-2017
</metadata>
<g transform="translate(0.000000,172.000000) scale(0.100000,-0.100000)"
fill="#000000" stroke="none">
<path d="M810 1313 c-93 -15 -206 -67 -291 -134 -24 -19 -87 -44 -185 -75
-216 -67 -239 -78 -264 -128 -11 -23 -20 -49 -20 -57 0 -8 -9 -28 -19 -45 -21
-35 -36 -186 -21 -215 10 -18 64 -49 87 -49 7 0 13 -4 13 -10 0 -5 -7 -10 -15
-10 -21 0 -75 -28 -75 -39 0 -19 86 -43 230 -65 46 -7 278 -45 310 -51 14 -3
45 -7 70 -11 25 -3 56 -8 70 -10 49 -10 266 -13 300 -4 41 9 607 246 680 283
35 18 38 45 6 53 -24 6 -25 7 -9 30 12 20 14 43 10 122 -8 133 -16 150 -88
196 -33 21 -65 46 -72 56 -7 9 -38 36 -70 58 -60 42 -140 73 -237 93 -54 11
-361 20 -410 12z"/>
</g>
</svg>
